<svg xmlns="http://www.w3.org/2000/svg" width="29" height="22" viewBox="0 0 29 22"><defs><style>.a{fill:#fff;}</style></defs><g transform="translate(0 0.337)"><path class="a" d="M14.5,22h0c-.075,0-7.573-.053-9.851-.3-.122-.028-.272-.049-.445-.074A4.111,4.111,0,0,1,1.45,20.35a7.4,7.4,0,0,1-1.15-3.1A48.945,48.945,0,0,1,0,12.2V9.85a50.614,50.614,0,0,1,.3-5.1,6.721,6.721,0,0,1,1.15-3.1A4,4,0,0,1,4.266.357L4.35.35C8.359.053,14.439,0,14.5,0s6.141.053,10.15.35l.136.011A3.73,3.73,0,0,1,27.55,1.65a7.4,7.4,0,0,1,1.15,3.1,50.562,50.562,0,0,1,.3,5.1V12.2a50.289,50.289,0,0,1-.3,5.05,7.407,7.407,0,0,1-1.15,3.1,4,4,0,0,1-2.812,1.292l-.088.008C20.646,22,14.561,22,14.5,22ZM11,5.95V16.8l9.5-5.3Z" transform="translate(0 -0.338)"/></g></svg>